<?xml version="1.0" encoding="UTF-8"?>
<svg width="68px" height="77px" viewBox="0 0 68 77" version="1.1" xmlns="http://www.w3.org/2000/svg" xmlns:xlink="http://www.w3.org/1999/xlink">
    <!-- Generator: Sketch 50.2 (55047) - http://www.bohemiancoding.com/sketch -->
    <title>Group 4</title>
    <desc>Created with Sketch.</desc>
    <defs></defs>
    <g id="FINAL" stroke="none" stroke-width="1" fill="none" fill-rule="evenodd">
        <g id="Join-and-Give-(alt)" transform="translate(-1066.000000, -1384.000000)">
            <g id="Your-Gift" transform="translate(0.000000, 1193.000000)">
                <g id="Group-4" transform="translate(1066.000000, 191.000000)">
                    <polygon id="Rectangle-2" fill="#CBC8C5" points="4.08045977 12.8380815 58.411144 3.40425532 67.7356322 14.5402092 67.7356322 76.5957447 4.08045977 76.5957447"></polygon>
                    <rect id="Rectangle-8" fill="#5C7818" x="5.52873563" y="0.85106383" width="52.2298851" height="65"></rect>
                    <path d="M6.45228245,0.751745346 C2.36833221,2.06462291 0.326357085,4.19309218 0.326357085,7.13715314 C0.326357085,10.0812141 0.326357085,31.0592596 0.326357085,70.0712897 C1.77184582,74.4209263 4.07395811,76.5957447 7.23269395,76.5957447 C10.3914298,76.5957447 30.5590759,76.5957447 67.7356322,76.5957447 L67.7356322,10.0929021 L63.8227705,10.0929021 L63.8227705,73.113493 L8.58716139,73.113493 C5.72146851,73.4995832 4.28862208,72.2596897 4.28862208,69.3938126 C4.28862208,66.5279355 5.0098422,65.3910031 6.45228245,65.9830154 L6.45228245,0.751745346 Z" id="Path-10" fill="#5C7818"></path>
                    <rect id="Rectangle-9" fill="#E3DED8" x="15" y="18" width="32" height="3"></rect>
                    <rect id="Rectangle-9" fill="#E3DED8" x="15" y="26" width="25" height="3"></rect>
                    <rect id="Rectangle-9" fill="#E3DED8" x="15" y="35" width="15" height="3"></rect>
                </g>
            </g>
        </g>
    </g>
</svg>