<?xml version="1.0" encoding="UTF-8"?>
<svg width="83px" height="83px" viewBox="0 0 83 83" version="1.1" xmlns="http://www.w3.org/2000/svg" xmlns:xlink="http://www.w3.org/1999/xlink">
    <!-- Generator: Sketch 50.2 (55047) - http://www.bohemiancoding.com/sketch -->
    <title>Group 18</title>
    <desc>Created with Sketch.</desc>
    <defs></defs>
    <g id="FINAL" stroke="none" stroke-width="1" fill="none" fill-rule="evenodd">
        <g id="Our-Causes" transform="translate(-581.000000, -1500.000000)">
            <g id="Our-Impact" transform="translate(0.000000, 1314.000000)">
                <g id="Group-21" transform="translate(581.000000, 186.000000)">
                    <g id="Group-18">
                        <g id="Group-5">
                            <circle id="Oval" fill="#888888" cx="41.5" cy="41.5" r="41.5"></circle>
                            <circle id="Oval" fill="#DDD6CE" cx="41.5" cy="41.5" r="32.5"></circle>
                        </g>
                        <path d="M50.7740874,32.8337157 C50.5785371,32.6055736 50.2118857,32.3285481 49.6741223,32.0026309 C49.1363589,31.6767137 48.5008298,31.3426535 47.7675161,31.0004405 C47.0342023,30.6582274 46.2275693,30.3486106 45.3475928,30.071581 C44.4676163,29.7945514 43.5550618,29.6071518 42.6099018,29.5093766 L42.6099018,37.9668863 L43.8320853,38.2602103 C45.5268549,38.7164944 47.0667906,39.2053629 48.4519388,39.7268305 C49.837087,40.248298 51.0103714,40.9001227 51.9718273,41.682324 C52.9332831,42.4645254 53.6747336,43.4015233 54.1962012,44.493346 C54.7176687,45.5851687 54.9783986,46.9295571 54.9783986,48.5265515 C54.9783986,50.3190962 54.6606341,51.8508842 54.0250955,53.1219614 C53.3895569,54.3930385 52.5258892,55.435958 51.4340665,56.2507511 C50.3422438,57.0655441 49.0711857,57.6766298 47.6208541,58.0840263 C46.1705224,58.4914228 44.6468823,58.7277093 43.0498879,58.7928927 L43.0498879,64.1705 L40.1166475,64.1705 L40.1166475,58.7440054 C37.835227,58.5810468 35.6108753,58.1166217 33.4435258,57.3507162 C31.2761762,56.5848107 29.3125544,55.5826303 27.5526014,54.3441448 L30.5347291,48.5265515 C30.7954629,48.7872853 31.2435923,49.1294932 31.8791309,49.5531856 C32.5146695,49.976878 33.2805635,50.3924162 34.1768358,50.7998128 C35.0731082,51.2072093 36.0671408,51.5901563 37.1589635,51.9486652 C38.2507862,52.3071742 39.3833316,52.5516084 40.5566336,52.6819753 L40.5566336,44.273353 C40.2633081,44.2081696 39.969987,44.1348393 39.6766615,44.05336 C39.383336,43.9718807 39.0900149,43.8822548 38.7966894,43.7844796 C37.1345115,43.3281955 35.6923495,42.8311792 34.4701599,42.2934158 C33.2479703,41.7556524 32.2294942,41.1201233 31.4147012,40.3868095 C30.5999081,39.6534958 29.9888225,38.8061237 29.581426,37.8446679 C29.1740294,36.8832121 28.9703342,35.7343711 28.9703342,34.3981105 C28.9703342,32.7685244 29.2555075,31.3100667 29.8258627,30.0226937 C30.3962178,28.7353206 31.1784074,27.6353665 32.1724549,26.7227983 C33.1665025,25.8102301 34.3479347,25.0932229 35.716787,24.5717554 C37.0856394,24.0502878 38.5522449,23.7243755 40.1166475,23.5940086 L40.1166475,18.6075 L43.0498879,18.6075 L43.0498879,23.5451212 C45.2009415,23.7080799 47.180859,24.1480615 48.9896996,24.8650794 C50.7985402,25.5820973 52.3873628,26.4131737 53.7562151,27.3583337 L50.7740874,32.8337157 Z M47.7919598,49.2109742 C47.7919598,48.1028557 47.3356825,47.239188 46.4231143,46.6199453 C45.510546,46.0007026 44.2394879,45.430356 42.6099018,44.9088884 L42.6099018,52.77975 C46.0646244,52.6819748 47.7919598,51.4923948 47.7919598,49.2109742 Z M35.9123364,33.3225891 C35.9123364,34.4307076 36.2952834,35.2699319 37.0611888,35.840287 C37.8270943,36.4106422 38.9922309,36.9239541 40.5566336,37.3802382 L40.5566336,29.4604893 C37.46042,29.6560396 35.9123364,30.9433933 35.9123364,33.3225891 Z" id="$" fill="#5C7818"></path>
                    </g>
                </g>
            </g>
        </g>
    </g>
</svg>