<?xml version="1.0" standalone="no"?><!DOCTYPE svg PUBLIC "-//W3C//DTD SVG 1.1//EN" "http://www.w3.org/Graphics/SVG/1.1/DTD/svg11.dtd"><svg width="100%" height="100%" viewBox="0 0 1456 871" version="1.1" xmlns="http://www.w3.org/2000/svg" xmlns:xlink="http://www.w3.org/1999/xlink" xml:space="preserve" style="fill-rule:evenodd;clip-rule:evenodd;stroke-miterlimit:10;"><path d="M659.576,558.82l0,124.121" style="fill:none;stroke-width:77.88px;stroke:#fff;"/><path d="M492.063,650.759l-398.137,0" style="fill:none;stroke-width:77.88px;stroke:#fff;"/><path d="M491.399,706.858l-397.475,0" style="fill:none;stroke-width:77.88px;stroke:#fff;"/><path d="M497.991,612.921l0,142.871" style="fill:none;stroke-width:77.88px;stroke:#fff;"/><path d="M498.679,651.935l158.183,-59.8083" style="fill:none;stroke-width:77.88px;stroke:#fff;"/><path d="M496.832,708.787l162.412,-69.275" style="fill:none;stroke-width:77.88px;stroke:#fff;"/><path d="M1363.27,653.375l-500.337,0" style="fill:none;stroke-width:77.45px;stroke:#fff;"/><path d="M1361.97,709.17l-499.046,0" style="fill:none;stroke-width:77.45px;stroke:#fff;"/><path d="M852.935,607.835l0,159.246" style="fill:none;stroke-width:86.81px;stroke:#fff;"/><path d="M242.409,471.348l-25.1083,-59.7917l-21.4042,59.7917l46.5125,0ZM141.246,529.723c16.05,-0.95 20.4708,-3.25417 33.2458,-34.425l51.1833,-123.508l3.95833,0l63.0292,140.721c6.04583,13.4833 11.625,17.2125 23.7208,17.2125l0,6.975c-16.0542,-0.2375 -26.2833,-0.704167 -35.5875,-0.704167c-9.30833,0 -19.3083,0.466667 -35.5833,0.704167l0,-6.975c13.0208,0 16.7292,-2.32917 16.7292,-8.60833c0,-2.55417 -1.6125,-7.44583 -6.50833,-19.0792l-9.29583,-21.8542l-53.2542,0l-6.75833,18.8292c-5.8,16.2875 -6.26667,19.55 -6.26667,21.8708c0,6.05833 2.7875,8.59583 17.1958,8.84167l0,6.975c-19.9875,-0.704167 -22.3167,-0.704167 -27.9125,-0.704167c-5.80417,0 -8.125,0 -27.8958,0.704167l0,-6.975Z" style="fill:#fff;fill-rule:nonzero;"/><path d="M401.194,410.045l-4.24167,0c-3.56667,-23.4292 -23.4292,-32.0625 -42.9625,-32.0625c-21.6542,0 -42.6542,17.0958 -42.6542,48.6667c0,30.6167 17.575,58.4542 45.7417,58.4542c12.2167,0 31.2417,-7.16667 45.25,-29.3042l1.46667,19.2083c-17.0917,12.3667 -34.5,16.9167 -51.925,16.9167c-56.3208,0 -64.6292,-43.6167 -64.6292,-61.3625c0,-26.3708 18.7292,-58.7708 69.3583,-58.7708c10.2458,0 29.125,2.925 44.5958,9.12917l0,29.125Z" style="fill:#fff;fill-rule:nonzero;"/><path d="M530.487,410.045l-4.24167,0c-3.57917,-23.4292 -23.4458,-32.0625 -42.9792,-32.0625c-21.65,0 -42.6333,17.0958 -42.6333,48.6667c0,30.6167 17.5708,58.4542 45.7375,58.4542c12.2083,0 31.2458,-7.16667 45.2542,-29.3042l1.4625,19.2083c-17.0875,12.3667 -34.5083,16.9167 -51.9417,16.9167c-56.3,0 -64.6083,-43.6167 -64.6083,-61.3625c0,-26.3708 18.725,-58.7708 69.3458,-58.7708c10.2583,0 29.1333,2.925 44.6042,9.12917l0,29.125Z" style="fill:#fff;fill-rule:nonzero;"/><path d="M543.084,482.807c10.6,-0.15 13.5167,-4.06667 13.5167,-13.175l0,-79.7708c0,-9.11667 -2.91667,-13.025 -13.5167,-13.1833l0,-4.8875c5.54167,0.166667 13.5167,0.5 21.8208,0.5c24.8958,0 44.9333,-0.333333 60.0667,-0.5l0.641667,27.35l-5.2,0c-2.6,-15.6208 -9.6,-21.1583 -29.1333,-21.1583l-14.1583,0l0,47.0458l12.525,0c14.8125,0 16.9333,-5.36667 18.0708,-15.6292l5.525,0c-0.15,6.35 -0.308333,12.3667 -0.308333,17.5833c0,7.64583 0.158333,13.8292 0.308333,20.3375l-5.525,0c0,-12.8458 -4.0625,-16.1 -18.2208,-16.1l-12.375,0l0,38.7417c0,7.47917 3.0875,11.5542 18.3833,11.5542c16.6,0 28.1625,-3.10417 32.075,-23.6125l5.525,0c-0.983333,7.81667 -2.43333,21.4958 -2.43333,29.8c-15.7875,-0.166667 -36.4625,-0.4875 -62.0208,-0.4875c-12.5458,0 -22.3125,0.320833 -25.5667,0.4875l0,-4.89583Z" style="fill:#fff;fill-rule:nonzero;"/><path d="M647.064,458.401l6.35,0c3.9125,18.875 19.8625,27.3458 31.1042,27.3458c15.9375,0 23.7458,-10.2583 23.7458,-19.2208c0,-26.0458 -59.4083,-24.7292 -59.4083,-60.875c0,-8.3 4.71667,-33.8583 41.0292,-33.8583c8.79167,0 20.9833,0.975 30.1083,4.22917l0.983333,28.8208l-6.02083,0c-1.79583,-16.6042 -12.5458,-26.8625 -29.7875,-26.8625c-13.1917,0 -21.0167,8.4625 -21.0167,17.25c0,23.775 60.3958,25.8958 60.3958,62.1875c0,19.2042 -13.6792,34.5083 -40.6875,34.5083c-10.4208,0 -23.9333,-2.10417 -35.4958,-5.35833l-1.3,-28.1667Z" style="fill:#fff;fill-rule:nonzero;"/><path d="M739.906,458.401l6.34167,0c3.9125,18.875 19.8625,27.3458 31.0958,27.3458c15.95,0 23.7708,-10.2583 23.7708,-19.2208c0,-26.0458 -59.4333,-24.7292 -59.4333,-60.875c0,-8.3 4.73333,-33.8583 41.0375,-33.8583c8.78333,0 20.9958,0.975 30.1083,4.22917l0.983333,28.8208l-6.02917,0c-1.79167,-16.6042 -12.5292,-26.8625 -29.7792,-26.8625c-13.1833,0 -21,8.4625 -21,17.25c0,23.775 60.3958,25.8958 60.3958,62.1875c0,19.2042 -13.6833,34.5083 -40.7125,34.5083c-10.4042,0 -23.925,-2.10417 -35.4792,-5.35833l-1.3,-28.1667Z" style="fill:#fff;fill-rule:nonzero;"/><path d="M845.184,530.422c15.1167,-0.2375 19.3,-5.82083 19.3,-18.8417l0,-113.979c0,-13.025 -4.18333,-18.6 -19.3,-18.8292l0,-6.97917c10.9208,0.233333 18.6,0.695833 33.0125,0.695833c38.3875,0 67.6875,-0.4625 87.45,-0.695833l2.575,40.2458l-8.15417,0c-4.87083,-28.3875 -14.6417,-31.4125 -46.7417,-31.4125c-10.4708,0 -13.725,0.241667 -19.5333,0.9375l0,66.2875l21.6292,0c20.0042,0 24.8875,-4.65417 25.8208,-22.3375l7.89583,0c-0.220833,6.74583 -0.6875,15.825 -0.6875,27.4417c0,11.4042 0.229167,17.6833 0.6875,26.7542l-7.89583,0c-1.17083,-18.375 -10.9375,-23.025 -29.3083,-23.025l-18.1417,0l0,54.8958c0,13.0208 4.18333,18.6042 19.3083,18.8417l0,6.975c-18.625,-0.7 -26.525,-0.7 -33.9708,-0.7c-7.44583,0 -15.3458,0 -33.9458,0.7l0,-6.975Z" style="fill:#fff;fill-rule:nonzero;"/><path d="M1103.93,426.17c-10.575,0.15 -13.3333,4.06667 -13.5042,13.175l-0.654167,52.2667c-0.329167,23.75 -10.2458,47.6917 -46.0583,47.6917c-30.1208,0 -53.075,-13.0208 -53.075,-47.8667l0,-52.0917c0,-9.10833 -2.93333,-13.025 -13.5083,-13.175l0,-4.89583c13.025,0.4875 18.5542,0.4875 23.7667,0.4875c5.20833,0 10.7375,0 23.7625,-0.4875l0,4.89583c-10.575,0.15 -13.5083,4.06667 -13.5083,13.175l0,56.1667c0,24.4208 15.4625,37.6042 33.6958,37.6042c28.3167,0 38.4125,-18.2333 38.4125,-46.55c0,-9.125 -0.158333,-15.6417 -0.329167,-22.7917l-0.479167,-23.6042c-0.158333,-9.775 -2.27083,-14 -14.1583,-14l0,-4.89583c6.025,0.175 12.5333,0.4875 17.5833,0.4875c5.20833,0 11.7167,-0.3125 18.0542,-0.4875l0,4.89583Z" style="fill:#fff;fill-rule:nonzero;"/><path d="M1113.26,532.298c10.575,-0.158333 13.5083,-4.06667 13.5083,-13.175l0,-79.7792c0,-9.10833 -2.93333,-13.025 -13.5083,-13.175l0,-4.89583c6.67083,0.175 13.0208,0.491667 17.575,0.491667c3.58333,0 8.3,-0.316667 13.0208,-0.491667l76.675,85.7917l-0.479167,-66.8917c0,-9.77917 -2.27917,-14.0042 -14.0083,-14.0042l0,-4.89583c6.025,0.175 12.5333,0.491667 17.5833,0.491667c5.20417,0 11.7208,-0.316667 18.0792,-0.491667l0,4.89583c-10.6,0.15 -13.5292,4.06667 -13.5292,13.175l0,98.9667l-6.50833,0l-88.0667,-97.175l1.29167,76.5208c0.179167,12.025 3.2625,13.675 13.5292,14.6417l0,4.8875c-4.89167,-0.333333 -13.6792,-0.4875 -17.5875,-0.4875c-3.91667,0 -12.6958,0.154167 -17.575,0.4875l0,-4.8875Z" style="fill:#fff;fill-rule:nonzero;"/><path d="M1285.21,519.603c0,8.62917 3.74167,10.7333 15.9333,10.7333c25.8958,0 48.2,-11.2125 48.2,-47.3542c0,-22.6417 -7.32083,-38.1042 -17.5833,-46.8917c-7.825,-6.66667 -16.2792,-8.62917 -35.1625,-8.62917l-11.3875,0l0,92.1417ZM1251.17,532.298c10.6,-0.158333 13.5167,-4.06667 13.5167,-13.175l0,-79.7792c0,-9.10833 -2.91667,-13.025 -13.5167,-13.175l0,-4.89583c5.04583,0.329167 11.2458,0.491667 19.0542,0.491667c14.3375,0 28.6458,-0.491667 42.325,-0.491667c41.3375,0 60.875,25.2375 60.875,59.5875c0,17.4167 -9.44167,56.325 -66.5792,56.325c-12.3667,0 -25.2375,-0.4875 -38.2625,-0.4875c-6.8125,0 -12.8458,0.154167 -17.4125,0.4875l0,-4.8875Z" style="fill:#fff;fill-rule:nonzero;"/><path d="M89.5236,478.213l24.525,-18.625l37.7625,-81.3667l15.1125,-15.175l32.7042,-80.025l43.1458,-61.3833l19.8375,0l76.2042,51.9208c0,0 50.9333,30.1375 113.596,-28.6333c0,0 41.3333,-74.225 56.9458,-75.6917c15.6167,-1.46667 51.8333,7.4375 51.8333,7.4375l19.8125,-24.8542l5.5125,-35.5292l39.825,-44.2375l4.36667,-14.5417l34.8917,-19.8417l54.7125,34.7042l44.8167,9.9875l37.7083,-4.37917l55.2792,38.375l33.3167,11.4625l36.4417,27.0542l42.7167,-30.7167l19.875,-11.7833l26.6958,-26.0292l26.2167,-1.13333l40.1417,36.7833l9.09167,26.7083l0.770833,23.0708l14.8375,14.8333l14.6042,-15.5958l31.6292,-5.99167l28.5583,31.525l29.7667,24.7958l48.3875,27.1375l25.1208,2.69167l32.4042,15.1083l44.575,46.175l0,-312.45l-1273.74,0l0,478.213Z" style="fill:#fff;fill-rule:nonzero;"/></svg>