<?xml version="1.0" standalone="no"?><!DOCTYPE svg PUBLIC "-//W3C//DTD SVG 1.1//EN" "http://www.w3.org/Graphics/SVG/1.1/DTD/svg11.dtd"><svg width="100%" height="100%" viewBox="0 0 764 550" version="1.1" xmlns="http://www.w3.org/2000/svg" xmlns:xlink="http://www.w3.org/1999/xlink" xml:space="preserve" style="fill-rule:evenodd;clip-rule:evenodd;stroke-linejoin:round;stroke-miterlimit:1.41421;"><path d="M764.193,14.2494c0,-7.86974 -6.37968,-14.2494 -14.2494,-14.2494l-735.694,0c-7.86974,0 -14.2494,6.37968 -14.2494,14.2494l0,88.3523c0,7.86974 6.37968,14.2494 14.2494,14.2494l735.694,0c7.86974,0 14.2494,-6.37968 14.2494,-14.2494l0,-88.3523Z" style="fill:#fff;"/><path d="M764.193,230.884c0,-7.86974 -6.37968,-14.2494 -14.2494,-14.2494l-735.694,0c-7.86974,0 -14.2494,6.37968 -14.2494,14.2494l0,88.3523c0,7.86974 6.37968,14.2494 14.2494,14.2494l735.694,0c7.86974,0 14.2494,-6.37968 14.2494,-14.2494l0,-88.3523Z" style="fill:#fff;"/><path d="M764.193,447.518c0,-7.86974 -6.37968,-14.2494 -14.2494,-14.2494l-735.694,0c-7.86974,0 -14.2494,6.37968 -14.2494,14.2494l0,88.3523c0,7.86974 6.37968,14.2494 14.2494,14.2494l735.694,0c7.86974,0 14.2494,-6.37968 14.2494,-14.2494l0,-88.3523Z" style="fill:#fff;"/></svg>