<?xml version="1.0" encoding="UTF-8"?>
<svg width="72px" height="94px" viewBox="0 0 72 94" version="1.1" xmlns="http://www.w3.org/2000/svg" xmlns:xlink="http://www.w3.org/1999/xlink">
    <!-- Generator: Sketch 50.2 (55047) - http://www.bohemiancoding.com/sketch -->
    <title>Group 11</title>
    <desc>Created with Sketch.</desc>
    <defs></defs>
    <g id="FINAL" stroke="none" stroke-width="1" fill="none" fill-rule="evenodd">
        <g id="Our-Causes" transform="translate(-944.000000, -1495.000000)">
            <g id="Our-Impact" transform="translate(0.000000, 1314.000000)">
                <g id="Group-20" transform="translate(944.000000, 182.000000)">
                    <g id="Group-11">
                        <path d="M24.3061523,46.8197293 L41.8927002,47.1689453 L48.361289,42.8936633 C52.9075129,41.1068794 55.550091,41.9994575 56.2890233,45.5713977 C57.0279556,49.1433378 58.2743749,54.6449654 60.0282811,62.0762805 C60.713177,64.7019315 60.0011002,66.6646594 57.8920507,67.9644641 C55.7830012,69.2642687 53.690065,68.065701 51.6132421,64.3687609 L48.9926366,54.1680773 C43.7572589,57.3497904 39.7100584,59.3014505 36.8510351,60.0230578 C33.9920117,60.7446651 31.8680305,60.7446651 30.4790915,60.0230578 L19.5458593,84.7608508 C17.8609634,87.303494 15.3253189,88.2398547 11.9389257,87.5699328 C9.85852203,85.9341906 9.45227203,83.4576281 10.7201757,80.1402453 C11.9880793,76.8228625 16.5167382,65.7160238 24.3061523,46.8197293 Z" id="Path-5" fill="#5C7818"></path>
                        <path d="M24.4131531,47.1696771 L41.0801452,47.1696771 L41.0801452,31.0582029 L57.3340515,6.2355951 C58.4385437,3.21085552 58.0811218,1.25594015 56.2617859,0.370849007 C54.4424499,-0.514242138 52.6099304,0.184976612 50.7642273,2.46850526 L38.0435241,22.7878412 L27.6603206,22.7878412 L14.1787781,28.8547357 L6.96881711,17.714599 C4.90306191,15.7738438 3.15599159,15.3944493 1.72760618,16.5764154 C0.29922076,17.7583816 -0.243422469,19.6047357 0.099676489,22.1154779 L8.05231321,34.1784662 C10.6558288,37.9707839 13.1175801,39.2176915 15.4375671,37.9191889 C17.7575541,36.6206862 20.7494161,35.3737787 24.4131531,34.1784662 L24.4131531,47.1696771 Z" id="Path-6" fill="#C9BAA9"></path>
                        <path d="M24.4131531,47.1696771 L41.0801452,47.1696771 L41.0801452,31.0582029 L47.9638672,19.3911133 L42.784668,15.6943359 L38.0435241,22.7878412 L27.6603206,22.7878412 L16.7016602,28.0493164 C18.1398112,33.7273763 19.3383789,36.2197266 20.2973633,35.5263672 C21.2563477,34.8330078 22.6282776,34.3837075 24.4131531,34.1784662 L24.4131531,47.1696771 Z" id="Path-6" fill="#5C7818"></path>
                        <rect id="Rectangle-6" fill="#B6B5B5" x="24" y="46" width="17" height="2"></rect>
                        <ellipse id="Oval-3" fill="#777676" cx="31.5" cy="12" rx="7.5" ry="7"></ellipse>
                        <path d="M45,35.625 C56.9934896,30.7669271 65.4075521,18.8919271 70.2421875,0" id="Path-7" stroke="#888888" stroke-width="2" stroke-linecap="round" stroke-linejoin="round"></path>
                        <path d="M40.09375,62.2832031 C43.0742188,75.7089844 43.0742188,85.7597656 40.09375,92.4355469" id="Path-8" stroke="#888888" stroke-width="2" stroke-linecap="round" stroke-linejoin="round" transform="translate(41.211426, 77.359375) rotate(11.000000) translate(-41.211426, -77.359375) "></path>
                    </g>
                </g>
            </g>
        </g>
    </g>
</svg>