<svg xmlns="http://www.w3.org/2000/svg" viewBox="0 0 124 124"><path d="M11.7,50.3a11.7,11.7,0,0,0,0,23.4H50.2V50.3Zm100.6,0H73.8V73.8h38.5a11.75,11.75,0,0,0,0-23.5Z" fill="#2348cc"/><path d="M73.7,11.7a11.7,11.7,0,1,0-23.4,0V50.2H73.8V11.7ZM50.3,112.3a11.7,11.7,0,1,0,23.4,0V73.8H50.3Z" fill="#f42f4c"/><path d="M50.3,50.3H73.8V73.8H50.3Z" fill="#210f3c"/><circle cx="11.7" cy="62" r="11.7" fill="#210f3c"/><circle cx="112.3" cy="62" r="11.7" fill="#210f3c"/><circle cx="62" cy="112.3" r="11.7" fill="#210f3c"/><circle cx="62" cy="11.7" r="11.7" fill="#210f3c"/></svg>